# xmcd
#
# Track frame offsets: 
#        150
#        24336
#        50278
#        65862
#        89185
#        111564
#        132764
#        158683
#        181079
#        214821
#
# Disc length: 3232 seconds
#
# Revision: 0
# Processed by: cddbd v1.5.2PL0 Copyright (c) Steve Scherf et al.
# Submitted via: ExactAudioCopy v0.99pb4
#
DISCID=8d0c9e0a
DTITLE=Willie Nelson, Wynton Marsalis - Two Men with the Blues
DYEAR=2008
DGENRE=Country
TTITLE0=Bright Lights Big City
TTITLE1=Night Life
TTITLE2=Caldonia
TTITLE3=Stardust
TTITLE4=Basin Street Blues
TTITLE5=Georgia On My Mind
TTITLE6=Rainy Day Blues
TTITLE7=My Bucket's Got A Hole In It
TTITLE8=Ain't Nobody's Business
TTITLE9=That's All
EXTD=
EXTT0=
EXTT1=
EXTT2=
EXTT3=
EXTT4=
EXTT5=
EXTT6=
EXTT7=
EXTT8=
EXTT9=
PLAYORDER=
